<svg height="457.14286pt" viewBox="0 0 457.14286 457.14286" width="457.14286pt" xmlns="http://www.w3.org/2000/svg"><path d="m431.332031 0h-405.519531c-14.230469 0-25.8125 11.582031-25.8125 25.8125v405.519531c0 14.230469 11.582031 25.8125 25.8125 25.8125h405.519531c14.230469 0 25.8125-11.582031 25.8125-25.8125v-405.519531c0-14.230469-11.582031-25.8125-25.8125-25.8125zm7.523438 431.332031c0 4.148438-3.375 7.523438-7.523438 7.523438h-405.519531c-4.152344 0-7.527344-3.375-7.527344-7.523438v-333.617187h420.570313zm0-351.902343h-420.570313v-53.617188c0-4.152344 3.375-7.527344 7.527344-7.527344h405.519531c4.148438 0 7.523438 3.375 7.523438 7.527344zm0 0"/><path d="m396.855469 39.714844h-262.285157c-5.050781 0-9.140624 4.089844-9.140624 9.140625 0 5.054687 4.089843 9.144531 9.140624 9.144531h262.285157c5.054687 0 9.144531-4.089844 9.144531-9.144531 0-5.050781-4.089844-9.140625-9.144531-9.140625zm0 0"/><path d="m66.742188 42.417969c-.457032-.453125-.910157-.820313-1.375-1.1875-.546876-.273438-1-.640625-1.554688-.820313-.542969-.1875-1.1875-.367187-1.730469-.554687-2.929687-.632813-6.125.367187-8.234375 2.5625-.910156.824219-1.554687 1.832031-2.007812 2.929687-.457032 1.097656-.734375 2.285156-.734375 3.472656 0 1.277344.277343 2.375.734375 3.5625.453125 1.097657 1.097656 2.109376 2.007812 2.929688.820313.820312 1.832032 1.554688 2.929688 2.007812 1.097656.457032 2.285156.644532 3.472656.644532 1.277344 0 2.464844-.1875 3.5625-.644532 1.097656-.453124 2.105469-1.1875 2.929688-2.007812.820312-.820312 1.550781-1.832031 2.007812-2.929688.457031-1.097656.644531-2.285156.644531-3.5625 0-1.1875-.1875-2.375-.644531-3.472656s-1.1875-2.105468-2.007812-2.929687zm0 0"/><path d="m101.9375 41.230469c-.542969-.273438-1-.640625-1.554688-.820313-.542968-.1875-1.1875-.367187-1.730468-.554687-3.019532-.632813-6.125.367187-8.234375 2.5625-1.730469 1.644531-2.738281 4.027343-2.738281 6.402343 0 2.464844 1.007812 4.75 2.738281 6.492188.824219.820312 1.832031 1.554688 2.929687 2.007812 1.097656.457032 2.285156.644532 3.472656.644532 2.464844 0 4.75-.910156 6.492188-2.652344s2.652344-4.027344 2.652344-6.492188c0-2.375-.910156-4.757812-2.652344-6.402343-.457031-.453125-.910156-.820313-1.375-1.1875zm0 0"/><path d="m91.042969 284.660156 90.929687 46.835938v-13.515625l-76.628906-38.429688v-.382812l76.628906-38.410157v-13.53125l-90.929687 46.851563zm0 0"/><path d="m194.789062 339.332031h13.132813l54.863281-142.09375h-13.324218zm0 0"/><path d="m275.167969 240.757812 77.207031 38.410157v.382812l-77.207031 38.429688v13.515625l90.929687-46.644532v-10.980468l-90.929687-46.644532zm0 0"/></svg>