<?xml version="1.0" encoding="UTF-8" standalone="no"?>
<svg width="21px" height="20px" viewBox="0 0 21 20" version="1.1" xmlns="http://www.w3.org/2000/svg" xmlns:xlink="http://www.w3.org/1999/xlink">
    <!-- Generator: Sketch 3.8.1 (29687) - http://www.bohemiancoding.com/sketch -->
    <title>minus [#1456]</title>
    <desc>Created with Sketch.</desc>
    <defs></defs>
    <g id="Page-1" stroke="none" stroke-width="1" fill="none" fill-rule="evenodd">
        <g id="Dribbble-Light-Preview" transform="translate(-219.000000, -480.000000)" fill="#000000">
            <g id="icons" transform="translate(56.000000, 160.000000)">
                <path d="M169.3,331 L177.7,331 L177.7,329 L169.3,329 L169.3,331 Z M181.9,334 L184,334 L184,326 L181.9,326 L181.9,334 Z M181.9,338 L179.8,338 L179.8,340 L184,340 L184,336 L181.9,336 L181.9,338 Z M179.8,320 L179.8,322 L181.9,322 L181.9,324 L184,324 L184,320 L179.8,320 Z M163,334 L165.1,334 L165.1,326 L163,326 L163,334 Z M165.1,336 L163,336 L163,340 L167.2,340 L167.2,338 L165.1,338 L165.1,336 Z M163,320 L163,324 L165.1,324 L165.1,322 L167.2,322 L167.2,320 L163,320 Z M169.3,340 L177.7,340 L177.7,338 L169.3,338 L169.3,340 Z M169.3,322 L177.7,322 L177.7,320 L169.3,320 L169.3,322 Z" id="minus-[#1456]"></path>
            </g>
        </g>
    </g>
</svg>