<?xml version="1.0" encoding="UTF-8" standalone="no"?>
<svg width="21px" height="20px" viewBox="0 0 21 20" version="1.1" xmlns="http://www.w3.org/2000/svg" xmlns:xlink="http://www.w3.org/1999/xlink">
    <!-- Generator: Sketch 3.8.1 (29687) - http://www.bohemiancoding.com/sketch -->
    <title>minus [#1468]</title>
    <desc>Created with Sketch.</desc>
    <defs></defs>
    <g id="Page-1" stroke="none" stroke-width="1" fill="none" fill-rule="evenodd">
        <g id="Dribbble-Light-Preview" transform="translate(-139.000000, -440.000000)" fill="#000000">
            <g id="icons" transform="translate(56.000000, 160.000000)">
                <path d="M89.3,291 L97.7,291 L97.7,289 L89.3,289 L89.3,291 Z M95.6,280 L95.6,282 L101.9,282 L101.9,288 L104,288 L104,280 L95.6,280 Z M101.9,298 L95.6,298 L95.6,300 L104,300 L104,292 L101.9,292 L101.9,298 Z M85.1,292 L83,292 L83,300 L91.4,300 L91.4,298 L85.1,298 L85.1,292 Z M85.1,288 L83,288 L83,280 L91.4,280 L91.4,282 L85.1,282 L85.1,288 Z" id="minus-[#1468]"></path>
            </g>
        </g>
    </g>
</svg>