<?xml version="1.0" encoding="UTF-8" standalone="no"?>
<svg width="21px" height="20px" viewBox="0 0 21 20" version="1.1" xmlns="http://www.w3.org/2000/svg" xmlns:xlink="http://www.w3.org/1999/xlink">
    <!-- Generator: Sketch 3.8.1 (29687) - http://www.bohemiancoding.com/sketch -->
    <title>question [#1444]</title>
    <desc>Created with Sketch.</desc>
    <defs></defs>
    <g id="Page-1" stroke="none" stroke-width="1" fill="none" fill-rule="evenodd">
        <g id="Dribbble-Light-Preview" transform="translate(-299.000000, -520.000000)" fill="#000000">
            <g id="icons" transform="translate(56.000000, 160.000000)">
                <path d="M253.2669,374.512 C253.2669,375.064 252.7965,375.512 252.2169,375.512 C251.6373,375.512 251.1669,375.064 251.1669,374.512 C251.1669,373.96 251.6373,373.512 252.2169,373.512 C252.7965,373.512 253.2669,373.96 253.2669,374.512 L253.2669,374.512 Z M249.0669,365 C249.0669,364.448 249.5373,364 250.1169,364 L256.1124,364 C256.98915,364 257.7,364.677 257.7,365.512 L257.7,368 C257.7,369.1 256.755,370 255.6,370 L254.03445,370 C253.7394,370 253.5,370.228 253.5,370.509 L253.5,371.512 C253.5,372.064 253.03065,372.512 252.45,372.512 C251.8704,372.512 251.4,372.064 251.4,371.512 L251.4,369.778 C251.4,368.796 252.2358,368 253.2669,368 L254.3169,368 C254.8965,368 255.3669,367.552 255.3669,367 C255.3669,366.448 254.8965,366 254.3169,366 L250.1169,366 C249.5373,366 249.0669,365.552 249.0669,365 L249.0669,365 Z M245.1,378 L261.9,378 L261.9,362 L245.1,362 L245.1,378 Z M243,380 L264,380 L264,360 L243,360 L243,380 Z" id="question-[#1444]"></path>
            </g>
        </g>
    </g>
</svg>